{
    "asset" : {
        "generator" : "Khronos glTF Blender I/O v0.9.36",
        "version" : "2.0"
    },
    "scene" : 0,
    "scenes" : [
        {
            "extras" : {
                "glTF2ExportSettings" : {
                    "export_apply" : 1,
                    "export_cameras" : 1,
                    "export_copyright" : "",
                    "export_extras" : 1,
                    "export_format" : "GLTF_EMBEDDED",
                    "export_lights" : 1,
                    "export_selected" : 1,
                    "export_tangents" : 1
                }
            },
            "name" : "Scene",
            "nodes" : [
                0
            ]
        }
    ],
    "nodes" : [
        {
            "mesh" : 0,
            "name" : "blanket",
            "rotation" : [
                0.27461346983909607,
                0.6516036987304688,
                0.27461349964141846,
                0.6516037583351135
            ],
            "translation" : [
                -0.2853741943836212,
                0.29838690161705017,
                0.3700827956199646
            ]
        }
    ],
    "materials" : [
        {
            "doubleSided" : true,
            "name" : "Blanket",
            "pbrMetallicRoughness" : {}
        }
    ],
    "meshes" : [
        {
            "name" : "Plane.000",
            "primitives" : [
                {
                    "attributes" : {
                        "POSITION" : 0,
                        "NORMAL" : 1,
                        "TEXCOORD_0" : 2
                    },
                    "indices" : 3,
                    "material" : 0
                }
            ]
        }
    ],
    "accessors" : [
        {
            "bufferView" : 0,
            "componentType" : 5126,
            "count" : 9693,
            "max" : [
                0.7969413995742798,
                0.6240176558494568,
                1.1230199337005615
            ],
            "min" : [
                -0.7759572863578796,
                -0.6294133067131042,
                -1.1230199337005615
            ],
            "type" : "VEC3"
        },
        {
            "bufferView" : 1,
            "componentType" : 5126,
            "count" : 9693,
            "type" : "VEC3"
        },
        {
            "bufferView" : 2,
            "componentType" : 5126,
            "count" : 9693,
            "type" : "VEC2"
        },
        {
            "bufferView" : 3,
            "componentType" : 5123,
            "count" : 56865,
            "type" : "SCALAR"
        }
    ],
    "bufferViews" : [
        {
            "buffer" : 0,
            "byteLength" : 116316,
            "byteOffset" : 0
        },
        {
            "buffer" : 0,
            "byteLength" : 116316,
            "byteOffset" : 116316
        },
        {
            "buffer" : 0,
            "byteLength" : 77544,
            "byteOffset" : 232632
        },
        {
            "buffer" : 0,
            "byteLength" : 113730,
            "byteOffset" : 310176
        }
    ],
    "buffers" : [
        {
            "byteLength" : 423908,
            "uri" : "data:application/octet-stream;base64,"
        }
    ]
}
